<?xml version="1.0" encoding="UTF-8"?>
<svg width="512px" height="256px" viewBox="0 0 512 256" version="1.1" xmlns="http://www.w3.org/2000/svg" xmlns:xlink="http://www.w3.org/1999/xlink">
    <!-- Generator: Sketch 62 (91390) - https://sketch.com -->
    <title>logo</title>
    <desc>Created with Sketch.</desc>
    <defs>
        <radialGradient cx="50.9494078%" cy="45.7477614%" fx="50.9494078%" fy="45.7477614%" r="100%" gradientTransform="translate(0.509494,0.457478),scale(0.572659,1.000000),rotate(90.000000),translate(-0.509494,-0.457478)" id="radialGradient-1">
            <stop stop-color="#3F7830" offset="0%"></stop>
            <stop stop-color="#162E1B" offset="100%"></stop>
        </radialGradient>
        <linearGradient x1="13.4911405%" y1="58.9933257%" x2="91.014631%" y2="40.8504081%" id="linearGradient-2">
            <stop stop-color="#FFFFFF" stop-opacity="0" offset="0%"></stop>
            <stop stop-color="#FFFFFF" stop-opacity="0.75" offset="100%"></stop>
        </linearGradient>
        <radialGradient cx="61.238389%" cy="39.9075589%" fx="61.238389%" fy="39.9075589%" r="87.3829117%" id="radialGradient-3">
            <stop stop-color="#FFFFFF" offset="0%"></stop>
            <stop stop-color="#C1C1C1" offset="100%"></stop>
        </radialGradient>
    </defs>
    <g id="logo" stroke="none" stroke-width="1" fill="none" fill-rule="evenodd">
        <path d="M292.266248,24.4068735 C305.264886,28.536161 308.468322,34.8594901 309.870185,37.9747919 C310.931249,40.24112 311.508969,42.3251106 311.805427,44.1832113 C315.103856,44.3878051 319.229028,45.3517296 324.07763,48.0660122 C330.148838,44.8135176 335.155782,43.6440912 338.852339,43.4503628 C343.624646,43.2002568 347.410289,44.3198352 350.453129,45.8999229 C351.533465,46.4528681 352.60284,47.0930211 353.643648,47.8387219 C355.495399,46.3328047 357.503307,45.2159052 359.548517,44.3623115 C362.245121,43.2987644 365.059408,42.5955514 368.464561,42.4170949 C372.895439,42.1848824 377.883024,42.7881282 383.387269,44.5958468 C396.959811,49.0533766 399.572966,56.2795632 400.892176,60.356272 C401.67374,62.8985514 402.020376,65.0218904 402.12446,67.0079445 C402.386103,72.0003794 401.265341,77.5324037 397.182308,83.2216031 L388.411842,113.503086 L389.031657,113.523353 C393.329551,113.675875 396.721886,114.148657 399.629136,114.84681 C400.250611,114.995093 400.848837,115.155158 401.424653,115.325407 C403.092492,114.417393 405.010386,113.614541 407.220008,112.986156 C410.975024,111.918283 414.27876,111.722188 417.137688,111.995768 C421.746664,112.12204 425.334083,112.60663 428.386696,113.33969 C433.124528,114.470131 436.511147,116.285284 438.918573,118.077624 C445.277797,122.812093 447.783401,128.732541 448.113684,135.034722 C448.227528,137.206987 448.066551,140.249426 446.847045,144.104053 C446.768162,144.353386 446.7035,144.552039 446.655511,144.70077 C446.566083,145.176517 446.499994,145.778236 446.432587,146.501187 L449.506826,205.16115 C450.671477,207.956234 451.026295,210.403241 451.128946,212.361946 C451.395894,217.455618 450.814649,221.337288 450.010604,224.108618 C446.971215,234.58459 440.481536,238.345559 434.14597,240.015737 C430.300316,241.029526 426.025499,241.401083 421.511709,239.833507 C420.398961,239.644637 419.211969,239.409987 417.94903,239.121293 C416.234672,238.72941 414.68685,238.312795 413.295529,237.88772 C410.818862,239.718603 408.089629,240.810763 405.388411,241.522856 C401.542756,242.536646 397.26794,242.908203 392.75415,241.340627 C391.641401,241.151757 390.454409,240.917106 389.19147,240.628413 C386.279098,239.962677 383.847339,239.225565 381.847006,238.496854 C378.075861,240.417361 373.942312,241.119235 369.487458,240.719663 C365.479986,240.377863 362.006115,239.82648 358.990128,239.126871 C354.378536,242.226329 349.248203,243.848723 343.664141,244.141371 C337.798441,244.448779 331.723658,242.960694 325.739242,238.522756 C324.561669,237.648052 322.454558,235.859601 319.519891,233.028106 C319.223856,232.728838 318.938129,232.439731 318.662587,232.160685 C316.972168,233.773939 315.197905,235.340914 313.340385,236.862015 C301.068546,246.762241 292.632229,247.512581 288.490201,247.140852 C285.136497,246.830784 279.109513,245.282469 270.615325,241.312009 C257.047494,234.969963 253.205383,228.579626 252.145758,226.286534 L251.795953,225.529536 C250.824854,223.258452 250.216597,220.766858 250.07283,218.023608 C249.991395,216.469741 250.051968,214.548552 250.497878,212.279193 L247.183842,149.049086 L247.164833,149.061224 C246.632371,149.371745 246.080367,149.669554 245.508166,149.953975 C243.351903,151.064693 240.374313,152.148161 236.267594,152.363385 C233.351754,152.516197 229.036118,152.249226 223.330599,151.190064 C222.177987,150.976095 221.09707,150.740715 220.083417,150.488483 C218.331634,151.593876 216.210696,152.621535 213.632536,153.432956 C211.076849,154.216677 205.411027,155.132582 195.901727,153.238679 C195.005757,153.062802 194.14805,152.875404 193.326843,152.677681 C189.933764,154.326188 186.597286,154.966495 183.510919,155.128245 C179.430007,155.342116 174.075478,154.702494 167.519812,152.445901 C164.527154,155.445141 160.966995,157.013928 157.454214,157.939965 C153.608173,158.953856 149.332883,159.325386 144.81838,157.757468 C143.706086,157.568645 142.519618,157.334079 141.257273,157.045521 C133.0226,155.163167 128.630261,152.710189 126.968374,151.489884 C125.953421,150.744616 124.194886,149.165303 122.00903,146.38701 C121.258773,148.147367 120.34752,149.728449 119.321457,151.175168 C116.00765,155.84754 111.237446,159.553241 104.354222,161.41969 C101.604966,162.165176 98.9983996,162.487146 96.5264712,162.454556 C94.9375002,161.931562 93.3146648,161.338686 91.6587538,160.672854 C86.0706083,158.425894 81.3294586,155.840114 77.3753853,153.021762 C66.5056139,145.084261 64.5222061,137.234704 64.2324151,131.705162 L60.8615917,67.3860207 C57.2926738,61.0906509 57.8362175,56.2653115 58.4281767,53.0973128 C59.1877676,48.4510203 61.2786235,43.6475356 65.7526902,39.1445705 C69.9988537,34.8709806 74.9453081,32.4472333 80.4485897,31.5847078 C82.2070922,31.3000717 87.2669514,30.6326403 96.0029125,34.8616291 L96.9204694,34.4289003 C98.566524,33.3430063 100.577932,32.2099766 103.083352,31.0358485 C103.450356,30.8638571 103.809901,30.6994477 104.163208,30.5424195 C105.691302,29.9562324 107.03763,29.6334562 108.151425,29.440214 C111.528087,28.8543669 117.318106,28.6695514 125.446195,32.8746396 C126.943357,32.1202847 128.627917,31.4508124 130.528251,30.9103841 C134.28296,29.8425983 137.586463,29.6464482 140.445043,29.9199888 C145.054908,30.0462682 148.642327,30.5308578 151.69494,31.2639186 C156.432772,32.3943595 159.81939,34.2095125 162.226817,36.0018518 C168.226473,40.4686219 170.795977,45.9910463 171.344735,51.8937328 C172.995008,52.0494585 174.744415,52.2793698 176.591245,52.5915166 C178.271484,52.8755066 179.801689,53.215838 181.194667,53.5952972 C181.887719,53.1690982 182.614705,52.7656092 183.37707,52.3863162 C185.533971,51.2741506 188.513857,50.1882544 192.625684,49.9727627 C195.541523,49.8199501 199.85716,50.0869216 205.562678,51.1460835 C206.747591,51.3660486 207.856403,51.6078928 208.894016,51.8668972 C210.79494,50.6242444 212.994175,49.5754097 215.54904,48.8151936 C218.037114,48.0850805 223.666255,47.2402129 232.992477,49.0976505 C233.883473,49.272569 234.736806,49.4589891 235.554198,49.6557646 C238.952624,48.0052288 242.299869,47.369449 245.382358,47.2079026 C247.980796,47.0717242 251.093913,47.2843532 254.702065,48.0473518 C254.746669,43.9609697 255.578979,40.3421489 257.383564,36.4292369 C260.629906,29.3901363 265.272241,25.8836702 269.647598,23.9322027 C272.240061,22.8922407 274.561879,22.2360102 277.569706,22.0783767 C281.010154,21.8980704 285.928881,22.3936773 292.266248,24.4068735 Z" id="Combined-Shape" fill="url(#radialGradient-1)" fill-rule="nonzero"></path>
        <path d="M287.855195,224.071748 C289.719751,224.347978 293.276218,222.587009 298.524597,218.78884 C304.256379,214.576326 309.090412,209.81135 313.026696,204.493914 C317.929786,197.864383 320.381332,191.683727 320.381332,185.951945 C320.381332,184.91608 320.312274,183.880216 320.174159,182.844352 C319.414525,178.286549 315.340126,173.210815 307.950961,167.617148 C315.20201,161.19479 318.827535,155.255835 318.827535,149.800284 C318.827535,148.833477 318.68942,147.935728 318.41319,147.107037 C318.067901,145.933057 317.273739,144.828135 316.030702,143.792271 C313.889916,142.065831 312.750465,141.133553 312.61235,140.995438 C312.128947,140.512035 311.265726,139.268998 310.022689,137.266327 C309.055883,135.816117 308.002754,134.797517 306.863304,134.210527 C305.723853,133.623538 304.118263,133.330043 302.046535,133.330043 C298.524597,133.330043 294.294818,134.14147 289.357198,135.764324 C284.419579,137.387178 280.327915,139.234469 277.082208,141.306197 C276.046343,141.029967 274.837835,140.891851 273.456683,140.891851 C270.418148,140.891851 268.89888,141.444312 268.89888,142.549234 L268.89888,142.549234 L268.89888,209.673235 C268.89888,210.018523 268.778029,210.519191 268.536328,211.175238 C268.294626,211.831285 268.173775,212.366482 268.173775,212.780828 C268.173775,213.126116 268.242833,213.436875 268.380948,213.713105 C268.795294,214.74897 271.626656,216.665318 276.875035,219.462152 C282.123413,222.258985 285.783467,223.795517 287.855195,224.071748 Z M286.612158,166.788457 L286.612158,156.015469 C287.786138,154.496201 290.065039,152.907876 293.448862,151.250494 C296.832685,149.593111 299.318759,148.764419 300.907084,148.764419 C301.528603,148.764419 301.90842,148.902535 302.046535,149.178765 C302.598996,150.076514 301.269637,152.355415 298.058458,156.015469 C294.847279,159.675522 291.031846,163.266518 286.612158,166.788457 L286.612158,166.788457 Z M286.612158,207.187161 L286.612158,187.920087 C288.683887,186.124589 292.033181,184.294562 296.660041,182.430006 C300.941613,180.772624 303.980148,179.909403 305.775646,179.840346 C306.189992,184.121918 304.22185,189.439354 299.87122,195.792655 C295.52059,202.145955 291.100903,205.944124 286.612158,207.187161 L286.612158,207.187161 Z M340.269924,223.760988 C343.101287,223.760988 345.621889,222.725124 347.831733,220.653396 C349.143828,219.479416 350.663095,217.407688 352.389536,214.43821 C354.046918,211.744963 355.289955,210.087581 356.118647,209.466062 C356.187704,211.330618 356.153176,212.539126 356.01506,213.091587 C355.807888,213.367817 355.669772,213.661312 355.600715,213.972072 C355.531657,214.282831 355.341749,214.645383 355.030989,215.059729 C354.72023,215.474075 354.56485,215.853891 354.56485,216.19918 C354.56485,216.47541 354.633908,216.75164 354.772023,217.027871 C355.73883,219.099599 360.503805,220.722453 369.066949,221.896433 C370.033756,222.034548 370.896976,221.758317 371.65661,221.067741 C372.416244,220.377165 372.830589,219.548474 372.899647,218.581667 C372.968705,217.960149 372.657945,216.75164 371.967369,214.956143 L371.967369,214.956143 L371.967369,175.800475 C371.967369,174.004977 370.862447,172.140422 368.652604,170.206809 C366.718991,168.756599 364.837171,167.254596 363.007144,165.700799 C361.177117,164.147003 359.364355,162.575942 357.568857,160.987617 C355.566186,159.261177 353.770688,158.432485 352.182363,158.501543 C348.453252,158.708716 343.895449,160.089868 338.508955,162.645 L338.508955,162.645 L330.84356,166.788457 C328.150313,167.54809 326.769161,167.962436 326.700103,168.031494 C324.973663,169.067358 324.386673,170.517568 324.939134,172.382123 C325.146307,173.141757 326.49293,174.661025 328.979004,176.939926 C331.465079,179.218827 333.087933,180.461864 333.847566,180.669037 C334.814373,180.945268 335.884766,180.738095 337.058745,180.047519 C338.301782,179.080712 339.199531,178.321078 339.751992,177.768617 C341.409375,176.387465 344.309795,174.712818 348.453252,172.744676 C352.596708,170.776534 355.013725,169.999636 355.704301,170.413981 C356.809223,171.0355 357.361684,172.451181 357.361684,174.661025 C348.246079,179.080712 341.202202,183.258698 336.230054,187.194982 C329.39335,192.650533 325.318951,198.416844 324.006856,204.493914 C323.868741,205.046375 323.799683,205.598836 323.799683,206.151297 C323.799683,207.877737 324.524788,209.707764 325.974998,211.641377 C326.251229,211.986665 328.046727,214.023865 331.361492,217.752976 C333.295105,219.824704 334.641729,221.171328 335.401363,221.792846 C336.989688,223.104941 338.612542,223.760988 340.269924,223.760988 Z M336.851572,212.470068 C336.437227,212.470068 336.230054,212.193838 336.230054,211.641377 C336.230054,210.536455 336.868837,208.827279 338.146403,206.513849 C339.423969,204.200419 340.787856,202.318599 342.238066,200.868389 C344.033564,198.727603 345.829062,196.552288 347.62456,194.342445 C350.041577,191.649198 352.941997,189.646527 356.32582,188.334432 C354.87561,191.925428 351.629902,196.845783 346.588696,203.095497 C341.54749,209.345211 338.301782,212.470068 336.851572,212.470068 Z M391.389823,223.398436 C395.153463,224.468829 397.346042,224.934968 397.967561,224.796853 C399.624944,224.451564 400.453635,222.069077 400.453635,217.649389 C400.453635,217.235044 400.246462,216.699847 399.832116,216.0438 C399.417771,215.387753 399.210598,214.645383 399.210598,213.816692 L399.210598,213.816692 L399.210598,150.214629 C399.624944,147.31421 400.039289,145.173424 400.453635,143.792271 C400.522693,143.585098 400.712601,143.067166 401.02336,142.238475 C401.33412,141.409784 401.489499,140.753736 401.489499,140.270333 C401.489499,138.751065 400.073818,137.577086 397.242456,136.748395 C395.3779,136.195934 393.168057,135.816117 390.612925,135.608944 C388.403081,135.470829 386.952871,135.470829 386.262295,135.608944 C383.845279,136.161405 382.567713,137.266327 382.429598,138.923709 C382.429598,139.338055 382.550449,139.769665 382.79215,140.21854 C383.033852,140.667414 383.154703,141.099024 383.154703,141.51337 L383.154703,141.51337 L383.154703,214.541797 C383.154703,215.370488 383.016587,215.957478 382.740357,216.302766 C382.464127,216.648054 382.326011,216.958813 382.326011,217.235044 C382.326011,218.339966 383.085645,219.548474 384.604913,220.860569 C385.364546,221.482087 387.626183,222.328043 391.389823,223.398436 Z M420.186848,223.398436 C423.950488,224.468829 426.143067,224.934968 426.764586,224.796853 C428.421969,224.451564 429.25066,222.069077 429.25066,217.649389 C429.25066,217.235044 429.043487,216.699847 428.629142,216.0438 C428.214796,215.387753 428.007623,214.645383 428.007623,213.816692 L428.007623,213.816692 L428.007623,150.214629 C428.421969,147.31421 428.836314,145.173424 429.25066,143.792271 C429.319718,143.585098 429.509626,143.067166 429.820385,142.238475 C430.131145,141.409784 430.286524,140.753736 430.286524,140.270333 C430.286524,138.751065 428.870843,137.577086 426.039481,136.748395 C424.174925,136.195934 421.965082,135.816117 419.40995,135.608944 C417.200106,135.470829 415.749896,135.470829 415.05932,135.608944 C412.642304,136.161405 411.364738,137.266327 411.226623,138.923709 C411.226623,139.338055 411.347474,139.769665 411.589175,140.21854 C411.830877,140.667414 411.951728,141.099024 411.951728,141.51337 L411.951728,141.51337 L411.951728,214.541797 C411.951728,215.370488 411.813612,215.957478 411.537382,216.302766 C411.261152,216.648054 411.123036,216.958813 411.123036,217.235044 C411.123036,218.339966 411.88267,219.548474 413.401938,220.860569 C414.161571,221.482087 416.423208,222.328043 420.186848,223.398436 Z" id="ball" fill="#FFFFFF" fill-rule="nonzero" transform="translate(349.230150, 179.075286) rotate(-3.000000) translate(-349.230150, -179.075286) "></path>
        <path d="M369.51128,62.3896856 C371.787058,62.2704171 374.332217,62.672962 377.146756,63.5973202 C379.961295,64.5216785 381.533596,65.4938515 381.863661,66.5138393 C382.030501,67.0583147 382.12657,67.5719228 382.15187,68.0546636 C382.213311,69.2270341 381.759337,70.4609926 380.789948,71.7565391 C379.562778,73.4113572 378.862012,74.5545209 378.687651,75.1860303 L378.687651,75.1860303 L361.208606,135.538543 L361.01168,139.698007 L360.988151,139.982385 C360.796293,142.028579 360.179562,143.211262 359.137957,143.530433 C358.796756,143.617467 358.419267,143.671827 358.005489,143.693512 C356.143489,143.791095 353.807026,143.412189 350.996102,142.556794 C348.185177,141.701399 346.219049,140.801729 345.097717,139.857786 C343.976385,138.913843 343.386805,137.890168 343.328978,136.78676 C343.278379,135.821279 343.695161,134.537405 344.579323,132.93514 C345.463485,131.332874 345.963687,130.321238 346.079928,129.900232 L346.079928,129.900232 L348.880989,118.032105 L329.965311,77.7394599 L329.933184,77.6880231 C329.733911,77.3921861 329.087812,76.7522297 327.994885,75.768154 C327.051382,74.9186199 326.392912,73.5700812 326.019477,71.7225377 C325.838181,70.9022104 327.571657,69.3418746 331.219906,67.0415302 C334.868155,64.7411858 337.761206,63.5349936 339.899058,63.4229535 C340.450762,63.3940399 340.904443,63.4739921 341.2601,63.6628101 C342.396035,64.2256497 343.285032,65.3546499 343.927091,67.0498106 C344.351418,68.548925 344.80842,70.0117509 345.298096,71.4382881 L345.298096,71.4382881 L355.718583,96.0982179 L364.087038,69.7275013 L364.349624,68.676454 C364.618675,67.6250679 364.907122,66.5726652 365.214964,65.5192461 C365.625421,64.1146873 366.304355,63.2147011 367.251766,62.8192875 C367.86159,62.5798708 368.614761,62.4366702 369.51128,62.3896856 Z M111.570327,49.1458252 C113.283558,48.8485813 116.260419,50.2312113 120.500909,53.2937149 C124.741399,56.3562185 126.830629,58.6151958 126.768602,60.0706466 C126.688503,61.1812825 126.267203,62.3789525 125.504703,63.6636563 C124.546157,65.1660917 123.415349,66.0206072 122.112281,66.2272029 C121.633155,66.3214652 121.006163,66.2333078 120.231307,65.9627306 C119.45645,65.6921534 118.862133,65.5677074 118.448355,65.5893925 C117.207021,65.6544481 114.294019,66.8098216 109.709349,69.0555132 C104.718129,71.4608159 101.131615,73.6196201 98.9498056,75.5319259 L98.9498056,75.5319259 L99.9419025,94.4622619 L99.9812216,94.4429338 C100.389232,94.2327591 101.946157,93.1887865 104.651996,91.3110162 C106.521518,90.0374482 108.040657,89.335462 109.209413,89.2050577 C110.447133,89.0710392 112.85859,90.8809269 116.443784,94.6347207 C120.028979,98.3885146 121.786949,100.924174 121.717692,102.241699 C121.644822,103.490261 121.020248,104.767736 119.84397,106.074125 C118.929087,107.090206 117.996133,107.761471 117.045108,108.087922 C116.638559,108.247533 116.082337,108.190243 115.376444,107.916051 C114.67055,107.64186 114.179677,107.511993 113.903825,107.526449 C113.696937,107.537292 113.493662,107.617098 113.294001,107.765866 C111.337445,108.698233 109.618646,109.548988 108.137602,110.31813 C104.434994,112.240985 102.060899,113.78303 101.015319,114.944265 L101.015319,114.944265 L101.806828,130.047156 L101.820873,130.192192 C101.903213,130.77956 102.29944,131.453592 103.009552,132.214288 C103.778841,133.038376 104.188785,133.933161 104.239384,134.898643 C104.303853,138.767798 102.597409,141.173834 99.1200539,142.11675 C95.1641583,140.526108 91.7854125,138.732338 88.9838165,136.735439 C85.8919118,134.477145 84.2989749,132.45148 84.2050058,130.658443 L84.2050058,130.658443 L80.6215302,62.281655 L80.6011303,62.0270853 C80.4913101,61.0090581 80.0428423,59.994048 79.2557268,58.9820549 C78.4030184,57.8857291 78.0311704,57.0581001 78.1401827,56.499168 C78.2892445,55.3849178 78.8892763,54.2988976 79.940278,53.2411074 C80.9912797,52.1833171 82.2027961,51.549317 83.5748272,51.3391072 C84.1918797,51.2376164 86.1398638,52.1209484 89.4187793,53.9891031 C92.6976949,55.8572577 94.8597962,56.8676731 95.9050834,57.020349 L95.9050834,57.020349 L107.040016,51.769006 L107.198591,51.637585 C108.0803,50.9290451 109.537545,50.0984585 111.570327,49.1458252 Z M135.999043,50.1475991 C136.681444,49.9735312 138.129667,49.8976331 140.34371,49.9199047 C142.906183,49.9930684 145.132876,50.2567105 147.02379,50.7108309 C149.894642,51.3902046 151.369825,52.4884841 151.449337,54.0056695 C151.474636,54.4884103 151.353804,55.1516905 151.086841,55.9955101 C150.819878,56.8393296 150.657337,57.3664909 150.599216,57.5769941 C150.257722,58.9779387 149.955985,61.137476 149.694003,64.0556061 L149.694003,64.0556061 L153.022678,127.570504 L153.04463,127.842762 C153.123156,128.559197 153.36158,129.198954 153.759902,129.762032 C154.208015,130.395495 154.442914,130.919116 154.464599,131.332894 C154.695908,135.746524 153.993042,138.169117 152.356001,138.600672 C151.742563,138.771126 149.528593,138.420377 145.714091,137.548424 C141.899589,136.676472 139.596777,135.950041 138.805657,135.36913 C137.219802,134.138346 136.397961,132.97125 136.340134,131.867842 C136.325677,131.59199 136.447339,131.274429 136.70512,130.915157 C136.962901,130.555885 137.070106,129.962472 137.026736,129.134916 L137.026736,129.134916 L133.204723,56.2065721 L133.187985,56.0285704 C133.139621,55.6712304 133.001926,55.3058706 132.774901,54.9324909 L132.668833,54.7464694 C132.471585,54.375763 132.363667,54.0130764 132.345079,53.6584097 C132.396265,51.9960699 133.614253,50.8257998 135.999043,50.1475991 Z M193.672403,69.9453534 C195.534403,69.8477701 198.281029,70.136028 201.912281,70.8101269 C205.543533,71.4842259 207.544216,72.0536103 207.914331,72.5182801 C208.433213,73.1826105 208.710726,73.8595905 208.746868,74.5492202 C208.78301,75.23885 208.429843,76.0871873 207.687367,77.0942321 C206.944892,78.101277 206.580883,78.7427254 206.595339,79.0185773 L206.595339,79.0185773 L209.116241,127.120251 L209.125513,127.221038 C209.179669,127.64539 209.438657,128.324159 209.902478,129.257346 C210.40495,130.268298 210.668836,131.015145 210.694135,131.497886 C210.759191,132.739219 209.737249,133.691758 207.62831,134.355502 C206.53936,134.689181 203.93337,134.445417 199.810342,133.62421 C195.338884,132.752111 192.867353,131.7752 192.395748,130.693478 C192.003949,129.81503 192.044145,128.602757 192.516336,127.056658 C193.111997,125.227479 193.391756,123.968074 193.355614,123.278444 C193.319472,122.588815 193.169043,121.697717 192.904327,120.605152 C192.050592,124.107514 190.763202,127.252264 189.042155,130.039404 C186.93263,133.330969 184.739978,135.036386 182.4642,135.155654 C180.119459,135.278537 177.043525,134.644487 173.236398,133.253506 C169.429271,131.862524 167.215521,130.526341 166.595147,129.244958 C164.432875,124.932526 162.612636,108.673381 161.13443,80.4675254 C160.514057,79.1861425 160.169535,77.8903028 160.100865,76.5800063 C159.988825,74.4421541 160.706001,72.9523684 162.252393,72.1106492 C162.724292,71.8784609 163.580908,71.729839 164.822241,71.6647835 C167.166982,71.5419008 169.978957,71.7575815 173.258166,72.3118255 C176.537375,72.8660695 178.541672,73.5044168 179.271058,74.2268676 C179.637558,74.6225744 179.833458,75.0617983 179.858757,75.5445391 C179.898513,76.3031318 179.445443,77.554331 178.499546,79.2981368 C177.553649,81.0419426 177.100579,82.2931418 177.140335,83.0517345 C178.426403,110.230374 179.350709,123.908682 179.913256,124.086657 C180.896808,124.380873 183.160597,121.063935 186.70462,114.135843 C190.248644,107.207751 191.928494,101.98515 191.74417,98.468038 L191.74417,98.468038 L190.730388,79.1239241 L190.54752,78.9509456 C189.721351,78.1293774 189.27622,77.1071216 189.212129,75.8841782 C189.071175,73.1946223 190.147769,71.3056622 192.441912,70.2172979 C192.710535,70.0649152 193.120699,69.974267 193.672403,69.9453534 Z M246.429077,67.1804933 C248.773818,67.0576106 251.850656,67.7089009 255.65959,69.1343642 C259.468524,70.5598274 261.683178,71.9132505 262.303551,73.1946335 C264.465823,77.5070662 266.286062,93.7662106 267.764268,121.972067 C268.384642,123.253449 268.729164,124.549289 268.797833,125.859586 C268.906259,127.928475 268.187276,129.383779 266.640884,130.225498 C266.168986,130.457687 265.31237,130.606308 264.071036,130.671364 C261.726295,130.794247 258.91432,130.578566 255.635111,130.024322 C252.355903,129.470078 250.353412,128.866212 249.627641,128.212724 C249.261141,127.817018 249.065241,127.377794 249.039942,126.895053 C249.000185,126.13646 249.453256,124.885261 250.399153,123.141455 C251.345049,121.397649 251.79812,120.14645 251.758363,119.387857 C250.472296,92.2092177 249.547989,78.5309101 248.985443,78.3529348 C248.00189,78.0587187 245.785306,81.2867422 242.335692,88.0370054 C238.697259,95.1429261 236.970204,100.454442 237.154528,103.971554 L237.154528,103.971554 L238.16831,123.315668 L238.351179,123.488646 C239.177348,124.310215 239.622478,125.33247 239.68657,126.555414 C239.823909,129.176007 238.745508,131.030485 236.451366,132.11885 C236.182742,132.271232 235.772578,132.36188 235.220875,132.390794 C233.358874,132.488377 230.612248,132.200119 226.980996,131.526021 C223.349744,130.851922 221.312772,130.249863 220.870081,129.719844 C220.42739,129.189826 220.187973,128.580001 220.151831,127.890372 C220.115689,127.200742 220.468856,126.352405 221.211331,125.34536 C221.953807,124.338315 222.317816,123.696867 222.303359,123.421015 L222.303359,123.421015 L219.782457,75.319341 L219.769294,75.1781244 C219.699265,74.6482646 219.389852,73.9856824 218.841054,73.1903777 C218.242366,72.3227726 218.030202,71.5732154 218.204564,70.9417061 C218.542443,69.4717985 219.562578,68.4847783 221.264967,67.9806455 C222.353918,67.6469665 224.959907,67.8907305 229.082936,68.7119375 C233.554393,69.5840365 236.027731,70.5954287 236.50295,71.7461141 C236.818559,72.49025 236.774748,73.6335603 236.37152,75.1760451 C235.739424,77.6295053 235.432412,79.0286429 235.450483,79.3734577 C235.490239,80.1320504 235.671535,80.9523777 235.994371,81.8344396 C236.848106,78.332078 238.135497,75.1873276 239.856544,72.4001883 C241.962454,69.0396601 244.153299,67.2997618 246.429077,67.1804933 Z M278.616425,42.0509674 C280.409462,41.9569983 282.940994,42.4294097 286.211021,43.4682016 C289.481047,44.5069935 291.311961,45.4656132 291.70376,46.3440609 C291.935948,46.8159591 292.061078,47.2243157 292.079149,47.5691305 C292.108062,48.1208343 291.869256,48.8421616 291.36273,49.7331123 C290.856203,50.6240631 290.622818,51.4488348 290.662574,52.2074275 L290.662574,52.2074275 L292.543764,88.1026549 L306.753021,66.3010781 L306.902574,66.0796815 C307.715255,64.9306525 308.768958,64.2896689 310.063683,64.1567306 C311.370366,64.0190979 313.241255,64.7508774 315.676351,66.352069 C318.398141,68.1456928 319.84231,69.9716978 320.008856,71.8300838 C320.117575,72.5850623 318.637899,75.3595519 315.569827,80.1535525 C310.849672,87.7310782 308.077477,92.232963 307.253242,93.659207 L307.253242,93.659207 L321.671434,111.470997 L321.782131,111.603961 C322.331012,112.224921 323.332025,112.852305 324.78517,113.486113 C326.059032,114.041724 326.748515,114.662538 326.85362,115.348553 C327.060215,116.651621 325.874609,119.099514 323.2968,122.69223 C320.71899,126.284947 318.666072,128.017617 317.138044,127.89024 C314.150951,127.631873 307.456074,119.96106 297.053412,104.877801 C296.403538,105.672536 295.294416,106.940829 293.726046,108.682681 L293.726046,108.682681 L294.365758,120.889127 L294.3742,121.000712 C294.408582,121.359885 294.5245,121.938839 294.721953,122.737574 C294.941345,123.625057 295.096365,124.273881 295.187013,124.684044 C295.516785,127.017943 295.113556,128.560428 293.977328,129.311499 C293.374732,129.688841 292.383804,129.913655 291.004545,129.985939 C288.383952,130.123278 285.807022,129.774263 283.273757,128.938892 C280.319485,127.987281 278.802592,126.752882 278.72308,125.235697 L278.72308,125.235697 L274.70048,48.479908 L274.693094,48.2015245 C274.691937,47.1715027 274.975966,46.0393742 275.545179,44.805139 C276.166139,43.4587005 276.915843,42.5895816 277.79429,42.1977822 C277.997565,42.1179766 278.27161,42.0690383 278.616425,42.0509674 Z" id="flunky" fill="#FFFFFF" fill-rule="nonzero"></path>
        <path d="M112,228 C122.666667,209.333333 154.333333,190 207,170 L217,196 C173.666667,200 138.666667,210.666667 112,228 Z" id="Path-2" fill="url(#linearGradient-2)"></path>
        <circle id="Oval" fill="url(#radialGradient-3)" cx="217.10677" cy="183.10677" r="24.1067696"></circle>
    </g>
</svg>